<mxfile host="app.diagrams.net" modified="2023-10-29T17:56:50.518Z" agent="Mozilla/5.0 (Windows NT 10.0; Win64; x64) AppleWebKit/537.36 (KHTML, like Gecko) Chrome/116.0.0.0 Safari/537.36 OPR/102.0.0.0" etag="967QdrVQsljfzR9-kICy" version="22.0.8" type="device">
  <diagram name="Page-1" id="uJ4mQqsSs4CXYdfPLRIr">
    <mxGraphModel dx="1211" dy="699" grid="1" gridSize="10" guides="1" tooltips="1" connect="1" arrows="1" fold="1" page="1" pageScale="1" pageWidth="1200" pageHeight="30000" math="0" shadow="0">
      <root>
        <mxCell id="0" />
        <mxCell id="1" parent="0" />
        <mxCell id="XefmnypE6_ZuSq_uZl9b-3" value="Користувач" style="verticalAlign=top;align=left;spacingTop=8;spacingLeft=2;spacingRight=12;shape=cube;size=10;direction=south;fontStyle=4;html=1;whiteSpace=wrap;" vertex="1" parent="1">
          <mxGeometry x="70" y="110" width="180" height="220" as="geometry" />
        </mxCell>
        <mxCell id="XefmnypE6_ZuSq_uZl9b-4" value="БД" style="verticalAlign=top;align=left;spacingTop=8;spacingLeft=2;spacingRight=12;shape=cube;size=10;direction=south;fontStyle=4;html=1;whiteSpace=wrap;" vertex="1" parent="1">
          <mxGeometry x="660" y="110" width="180" height="290" as="geometry" />
        </mxCell>
        <mxCell id="XefmnypE6_ZuSq_uZl9b-16" value="Інформація&amp;nbsp;&lt;br&gt;про товари" style="shape=module;align=left;spacingLeft=20;align=center;verticalAlign=top;whiteSpace=wrap;html=1;" vertex="1" parent="1">
          <mxGeometry x="700" y="140" width="100" height="50" as="geometry" />
        </mxCell>
        <mxCell id="XefmnypE6_ZuSq_uZl9b-17" value="Надання доступу для читання" style="shape=module;align=left;spacingLeft=20;align=center;verticalAlign=top;whiteSpace=wrap;html=1;" vertex="1" parent="1">
          <mxGeometry x="700" y="195" width="100" height="50" as="geometry" />
        </mxCell>
        <mxCell id="XefmnypE6_ZuSq_uZl9b-18" value="Надання доступу для редагування" style="shape=module;align=left;spacingLeft=20;align=center;verticalAlign=top;whiteSpace=wrap;html=1;" vertex="1" parent="1">
          <mxGeometry x="700" y="250" width="100" height="50" as="geometry" />
        </mxCell>
        <mxCell id="XefmnypE6_ZuSq_uZl9b-19" value="Інформація&amp;nbsp;&lt;br&gt;про користувачів" style="shape=module;align=left;spacingLeft=20;align=center;verticalAlign=top;whiteSpace=wrap;html=1;" vertex="1" parent="1">
          <mxGeometry x="700" y="310" width="100" height="50" as="geometry" />
        </mxCell>
        <mxCell id="XefmnypE6_ZuSq_uZl9b-21" value="" style="line;strokeWidth=1;fillColor=none;align=left;verticalAlign=middle;spacingTop=-1;spacingLeft=3;spacingRight=3;rotatable=0;labelPosition=right;points=[];portConstraint=eastwest;strokeColor=inherit;" vertex="1" parent="1">
          <mxGeometry x="250" y="195" width="410" height="8" as="geometry" />
        </mxCell>
        <mxCell id="XefmnypE6_ZuSq_uZl9b-22" value="Вхід" style="text;html=1;strokeColor=none;fillColor=none;align=center;verticalAlign=middle;whiteSpace=wrap;rounded=0;" vertex="1" parent="1">
          <mxGeometry x="425" y="173" width="60" height="30" as="geometry" />
        </mxCell>
        <mxCell id="XefmnypE6_ZuSq_uZl9b-25" value="Надання доступу" style="endArrow=open;endSize=12;dashed=1;html=1;rounded=0;exitX=0;exitY=0;exitDx=150;exitDy=180;exitPerimeter=0;entryX=0.673;entryY=0;entryDx=0;entryDy=0;entryPerimeter=0;" edge="1" parent="1" source="XefmnypE6_ZuSq_uZl9b-4" target="XefmnypE6_ZuSq_uZl9b-3">
          <mxGeometry width="160" relative="1" as="geometry">
            <mxPoint x="520" y="410" as="sourcePoint" />
            <mxPoint x="680" y="410" as="targetPoint" />
          </mxGeometry>
        </mxCell>
        <mxCell id="XefmnypE6_ZuSq_uZl9b-26" value="Сервер" style="verticalAlign=top;align=left;spacingTop=8;spacingLeft=2;spacingRight=12;shape=cube;size=10;direction=south;fontStyle=4;html=1;whiteSpace=wrap;" vertex="1" parent="1">
          <mxGeometry x="350" y="480" width="180" height="220" as="geometry" />
        </mxCell>
        <mxCell id="XefmnypE6_ZuSq_uZl9b-27" value="Функціонал&amp;nbsp;&lt;br&gt;сайту" style="shape=module;align=left;spacingLeft=20;align=center;verticalAlign=top;whiteSpace=wrap;html=1;" vertex="1" parent="1">
          <mxGeometry x="385" y="540" width="100" height="50" as="geometry" />
        </mxCell>
        <mxCell id="XefmnypE6_ZuSq_uZl9b-31" value="" style="endArrow=none;html=1;rounded=0;entryX=1.003;entryY=0.478;entryDx=0;entryDy=0;entryPerimeter=0;" edge="1" parent="1" target="XefmnypE6_ZuSq_uZl9b-4">
          <mxGeometry width="50" height="50" relative="1" as="geometry">
            <mxPoint x="530" y="600" as="sourcePoint" />
            <mxPoint x="580" y="550" as="targetPoint" />
          </mxGeometry>
        </mxCell>
        <mxCell id="XefmnypE6_ZuSq_uZl9b-32" value="Обмін даними" style="text;html=1;strokeColor=none;fillColor=none;align=center;verticalAlign=middle;whiteSpace=wrap;rounded=0;" vertex="1" parent="1">
          <mxGeometry x="630" y="510" width="60" height="30" as="geometry" />
        </mxCell>
        <mxCell id="XefmnypE6_ZuSq_uZl9b-33" value="" style="endArrow=none;html=1;rounded=0;entryX=1;entryY=0.478;entryDx=0;entryDy=0;entryPerimeter=0;exitX=0.477;exitY=1.022;exitDx=0;exitDy=0;exitPerimeter=0;" edge="1" parent="1" source="XefmnypE6_ZuSq_uZl9b-26" target="XefmnypE6_ZuSq_uZl9b-3">
          <mxGeometry width="50" height="50" relative="1" as="geometry">
            <mxPoint x="220" y="450" as="sourcePoint" />
            <mxPoint x="270" y="400" as="targetPoint" />
          </mxGeometry>
        </mxCell>
        <mxCell id="XefmnypE6_ZuSq_uZl9b-34" value="Користування функціоналом читання" style="text;html=1;strokeColor=none;fillColor=none;align=center;verticalAlign=middle;whiteSpace=wrap;rounded=0;" vertex="1" parent="1">
          <mxGeometry x="250" y="410" width="60" height="30" as="geometry" />
        </mxCell>
        <mxCell id="XefmnypE6_ZuSq_uZl9b-35" value="" style="endArrow=classic;html=1;rounded=0;exitX=0;exitY=0;exitDx=215;exitDy=5;exitPerimeter=0;entryX=0;entryY=0;entryDx=0;entryDy=85;entryPerimeter=0;" edge="1" parent="1" source="XefmnypE6_ZuSq_uZl9b-3" target="XefmnypE6_ZuSq_uZl9b-26">
          <mxGeometry width="50" height="50" relative="1" as="geometry">
            <mxPoint x="570" y="440" as="sourcePoint" />
            <mxPoint x="620" y="390" as="targetPoint" />
          </mxGeometry>
        </mxCell>
        <mxCell id="XefmnypE6_ZuSq_uZl9b-36" value="Користування функціоналом&lt;br&gt;редагування" style="text;html=1;strokeColor=none;fillColor=none;align=center;verticalAlign=middle;whiteSpace=wrap;rounded=0;" vertex="1" parent="1">
          <mxGeometry x="350" y="370" width="60" height="30" as="geometry" />
        </mxCell>
        <mxCell id="XefmnypE6_ZuSq_uZl9b-37" value="" style="ellipse;whiteSpace=wrap;html=1;aspect=fixed;" vertex="1" parent="1">
          <mxGeometry x="120" y="900" width="30" height="30" as="geometry" />
        </mxCell>
        <mxCell id="XefmnypE6_ZuSq_uZl9b-38" value="" style="whiteSpace=wrap;html=1;aspect=fixed;" vertex="1" parent="1">
          <mxGeometry x="360" y="720" width="550" height="550" as="geometry" />
        </mxCell>
        <mxCell id="XefmnypE6_ZuSq_uZl9b-39" value="" style="endArrow=none;html=1;rounded=0;exitX=1;exitY=0.5;exitDx=0;exitDy=0;entryX=-0.005;entryY=0.344;entryDx=0;entryDy=0;entryPerimeter=0;" edge="1" parent="1" source="XefmnypE6_ZuSq_uZl9b-40" target="XefmnypE6_ZuSq_uZl9b-38">
          <mxGeometry width="50" height="50" relative="1" as="geometry">
            <mxPoint x="170" y="950" as="sourcePoint" />
            <mxPoint x="220" y="900" as="targetPoint" />
          </mxGeometry>
        </mxCell>
        <mxCell id="XefmnypE6_ZuSq_uZl9b-41" value="" style="endArrow=none;html=1;rounded=0;exitX=1;exitY=0.5;exitDx=0;exitDy=0;entryX=0;entryY=0.5;entryDx=0;entryDy=0;" edge="1" parent="1" source="XefmnypE6_ZuSq_uZl9b-37" target="XefmnypE6_ZuSq_uZl9b-40">
          <mxGeometry width="50" height="50" relative="1" as="geometry">
            <mxPoint x="150" y="915" as="sourcePoint" />
            <mxPoint x="358" y="914" as="targetPoint" />
          </mxGeometry>
        </mxCell>
        <mxCell id="XefmnypE6_ZuSq_uZl9b-40" value="" style="whiteSpace=wrap;html=1;aspect=fixed;" vertex="1" parent="1">
          <mxGeometry x="330" y="900" width="30" height="30" as="geometry" />
        </mxCell>
        <mxCell id="XefmnypE6_ZuSq_uZl9b-42" value="Замовлення" style="text;html=1;strokeColor=none;fillColor=none;align=center;verticalAlign=middle;whiteSpace=wrap;rounded=0;" vertex="1" parent="1">
          <mxGeometry x="160" y="870" width="60" height="30" as="geometry" />
        </mxCell>
        <mxCell id="XefmnypE6_ZuSq_uZl9b-43" value="" style="ellipse;whiteSpace=wrap;html=1;aspect=fixed;" vertex="1" parent="1">
          <mxGeometry x="1120" y="1150" width="30" height="30" as="geometry" />
        </mxCell>
        <mxCell id="XefmnypE6_ZuSq_uZl9b-44" value="" style="endArrow=none;html=1;rounded=0;exitX=1;exitY=0.5;exitDx=0;exitDy=0;entryX=0;entryY=0.5;entryDx=0;entryDy=0;" edge="1" parent="1">
          <mxGeometry width="50" height="50" relative="1" as="geometry">
            <mxPoint x="940" y="1164.5" as="sourcePoint" />
            <mxPoint x="1120" y="1164.5" as="targetPoint" />
          </mxGeometry>
        </mxCell>
        <mxCell id="XefmnypE6_ZuSq_uZl9b-45" value="" style="whiteSpace=wrap;html=1;aspect=fixed;" vertex="1" parent="1">
          <mxGeometry x="910" y="1150" width="30" height="30" as="geometry" />
        </mxCell>
        <mxCell id="XefmnypE6_ZuSq_uZl9b-46" value="Вхід" style="text;html=1;strokeColor=none;fillColor=none;align=center;verticalAlign=middle;whiteSpace=wrap;rounded=0;" vertex="1" parent="1">
          <mxGeometry x="1105" y="1120" width="60" height="30" as="geometry" />
        </mxCell>
        <mxCell id="XefmnypE6_ZuSq_uZl9b-47" value="Акаунт" style="text;html=1;strokeColor=none;fillColor=none;align=center;verticalAlign=middle;whiteSpace=wrap;rounded=0;" vertex="1" parent="1">
          <mxGeometry x="910" y="1190" width="60" height="30" as="geometry" />
        </mxCell>
        <mxCell id="XefmnypE6_ZuSq_uZl9b-48" value="Делегат" style="text;html=1;strokeColor=none;fillColor=none;align=center;verticalAlign=middle;whiteSpace=wrap;rounded=0;" vertex="1" parent="1">
          <mxGeometry x="890" y="1120" width="60" height="30" as="geometry" />
        </mxCell>
        <mxCell id="XefmnypE6_ZuSq_uZl9b-49" value="" style="ellipse;whiteSpace=wrap;html=1;aspect=fixed;" vertex="1" parent="1">
          <mxGeometry x="775" y="1060" width="30" height="30" as="geometry" />
        </mxCell>
        <mxCell id="XefmnypE6_ZuSq_uZl9b-50" value="Акаунт" style="text;html=1;strokeColor=none;fillColor=none;align=center;verticalAlign=middle;whiteSpace=wrap;rounded=0;" vertex="1" parent="1">
          <mxGeometry x="740" y="1090" width="60" height="30" as="geometry" />
        </mxCell>
        <mxCell id="XefmnypE6_ZuSq_uZl9b-51" value="" style="endArrow=classic;html=1;rounded=0;exitX=0.996;exitY=0.764;exitDx=0;exitDy=0;exitPerimeter=0;entryX=1;entryY=1;entryDx=0;entryDy=0;" edge="1" parent="1" source="XefmnypE6_ZuSq_uZl9b-38" target="XefmnypE6_ZuSq_uZl9b-49">
          <mxGeometry width="50" height="50" relative="1" as="geometry">
            <mxPoint x="570" y="1040" as="sourcePoint" />
            <mxPoint x="620" y="990" as="targetPoint" />
          </mxGeometry>
        </mxCell>
        <mxCell id="XefmnypE6_ZuSq_uZl9b-52" value="Покупець" style="html=1;dropTarget=0;whiteSpace=wrap;" vertex="1" parent="1">
          <mxGeometry x="700" y="990" width="180" height="50" as="geometry" />
        </mxCell>
        <mxCell id="XefmnypE6_ZuSq_uZl9b-53" value="" style="shape=module;jettyWidth=8;jettyHeight=4;" vertex="1" parent="XefmnypE6_ZuSq_uZl9b-52">
          <mxGeometry x="1" width="20" height="20" relative="1" as="geometry">
            <mxPoint x="-27" y="7" as="offset" />
          </mxGeometry>
        </mxCell>
        <mxCell id="XefmnypE6_ZuSq_uZl9b-58" value="" style="endArrow=none;html=1;rounded=0;exitX=0.5;exitY=0;exitDx=0;exitDy=0;" edge="1" parent="1" source="XefmnypE6_ZuSq_uZl9b-49">
          <mxGeometry width="50" height="50" relative="1" as="geometry">
            <mxPoint x="740" y="1090" as="sourcePoint" />
            <mxPoint x="790" y="1040" as="targetPoint" />
          </mxGeometry>
        </mxCell>
        <mxCell id="XefmnypE6_ZuSq_uZl9b-60" value="Замовлення" style="html=1;dropTarget=0;whiteSpace=wrap;" vertex="1" parent="1">
          <mxGeometry x="485" y="920" width="130" height="50" as="geometry" />
        </mxCell>
        <mxCell id="XefmnypE6_ZuSq_uZl9b-61" value="" style="shape=module;jettyWidth=8;jettyHeight=4;" vertex="1" parent="XefmnypE6_ZuSq_uZl9b-60">
          <mxGeometry x="1" width="20" height="20" relative="1" as="geometry">
            <mxPoint x="-27" y="7" as="offset" />
          </mxGeometry>
        </mxCell>
        <mxCell id="XefmnypE6_ZuSq_uZl9b-62" value="Продукт" style="html=1;dropTarget=0;whiteSpace=wrap;" vertex="1" parent="1">
          <mxGeometry x="450" y="1140" width="180" height="50" as="geometry" />
        </mxCell>
        <mxCell id="XefmnypE6_ZuSq_uZl9b-63" value="" style="shape=module;jettyWidth=8;jettyHeight=4;" vertex="1" parent="XefmnypE6_ZuSq_uZl9b-62">
          <mxGeometry x="1" width="20" height="20" relative="1" as="geometry">
            <mxPoint x="-27" y="7" as="offset" />
          </mxGeometry>
        </mxCell>
        <mxCell id="XefmnypE6_ZuSq_uZl9b-64" value="" style="ellipse;whiteSpace=wrap;html=1;aspect=fixed;" vertex="1" parent="1">
          <mxGeometry x="410" y="930" width="30" height="30" as="geometry" />
        </mxCell>
        <mxCell id="XefmnypE6_ZuSq_uZl9b-65" value="Делегат" style="text;html=1;strokeColor=none;fillColor=none;align=center;verticalAlign=middle;whiteSpace=wrap;rounded=0;" vertex="1" parent="1">
          <mxGeometry x="385" y="960" width="60" height="30" as="geometry" />
        </mxCell>
        <mxCell id="XefmnypE6_ZuSq_uZl9b-66" value="" style="endArrow=none;html=1;rounded=0;exitX=1;exitY=0.5;exitDx=0;exitDy=0;entryX=0;entryY=0.5;entryDx=0;entryDy=0;" edge="1" parent="1" source="XefmnypE6_ZuSq_uZl9b-64" target="XefmnypE6_ZuSq_uZl9b-60">
          <mxGeometry width="50" height="50" relative="1" as="geometry">
            <mxPoint x="430" y="990" as="sourcePoint" />
            <mxPoint x="480" y="940" as="targetPoint" />
          </mxGeometry>
        </mxCell>
        <mxCell id="XefmnypE6_ZuSq_uZl9b-67" value="" style="endArrow=classic;html=1;rounded=0;exitX=0;exitY=0.5;exitDx=0;exitDy=0;entryX=1;entryY=0.5;entryDx=0;entryDy=0;" edge="1" parent="1" source="XefmnypE6_ZuSq_uZl9b-64" target="XefmnypE6_ZuSq_uZl9b-40">
          <mxGeometry width="50" height="50" relative="1" as="geometry">
            <mxPoint x="560" y="1090" as="sourcePoint" />
            <mxPoint x="610" y="1040" as="targetPoint" />
          </mxGeometry>
        </mxCell>
        <mxCell id="XefmnypE6_ZuSq_uZl9b-68" value="" style="ellipse;whiteSpace=wrap;html=1;aspect=fixed;" vertex="1" parent="1">
          <mxGeometry x="625" y="920" width="20" height="20" as="geometry" />
        </mxCell>
        <mxCell id="XefmnypE6_ZuSq_uZl9b-69" value="" style="ellipse;whiteSpace=wrap;html=1;aspect=fixed;" vertex="1" parent="1">
          <mxGeometry x="625" y="950" width="20" height="20" as="geometry" />
        </mxCell>
        <mxCell id="XefmnypE6_ZuSq_uZl9b-70" value="" style="endArrow=classic;html=1;rounded=0;exitX=0;exitY=1;exitDx=0;exitDy=0;entryX=1;entryY=1;entryDx=0;entryDy=0;" edge="1" parent="1" source="XefmnypE6_ZuSq_uZl9b-52" target="XefmnypE6_ZuSq_uZl9b-69">
          <mxGeometry width="50" height="50" relative="1" as="geometry">
            <mxPoint x="560" y="1090" as="sourcePoint" />
            <mxPoint x="610" y="1040" as="targetPoint" />
          </mxGeometry>
        </mxCell>
        <mxCell id="XefmnypE6_ZuSq_uZl9b-71" value="" style="endArrow=classic;html=1;rounded=0;exitX=0;exitY=1;exitDx=0;exitDy=0;entryX=1;entryY=1;entryDx=0;entryDy=0;" edge="1" parent="1">
          <mxGeometry width="50" height="50" relative="1" as="geometry">
            <mxPoint x="700" y="995" as="sourcePoint" />
            <mxPoint x="642" y="922" as="targetPoint" />
          </mxGeometry>
        </mxCell>
        <mxCell id="XefmnypE6_ZuSq_uZl9b-72" value="" style="endArrow=none;html=1;rounded=0;exitX=1.003;exitY=0.801;exitDx=0;exitDy=0;entryX=0;entryY=0.5;entryDx=0;entryDy=0;exitPerimeter=0;" edge="1" parent="1" source="XefmnypE6_ZuSq_uZl9b-60" target="XefmnypE6_ZuSq_uZl9b-69">
          <mxGeometry width="50" height="50" relative="1" as="geometry">
            <mxPoint x="560" y="1090" as="sourcePoint" />
            <mxPoint x="610" y="1040" as="targetPoint" />
          </mxGeometry>
        </mxCell>
        <mxCell id="XefmnypE6_ZuSq_uZl9b-74" value="" style="endArrow=none;html=1;rounded=0;exitX=1.003;exitY=0.801;exitDx=0;exitDy=0;entryX=0;entryY=0.5;entryDx=0;entryDy=0;exitPerimeter=0;" edge="1" parent="1">
          <mxGeometry width="50" height="50" relative="1" as="geometry">
            <mxPoint x="615" y="930" as="sourcePoint" />
            <mxPoint x="625" y="930" as="targetPoint" />
          </mxGeometry>
        </mxCell>
        <mxCell id="XefmnypE6_ZuSq_uZl9b-75" value="Замовник" style="text;html=1;strokeColor=none;fillColor=none;align=center;verticalAlign=middle;whiteSpace=wrap;rounded=0;" vertex="1" parent="1">
          <mxGeometry x="615" y="890" width="60" height="30" as="geometry" />
        </mxCell>
        <mxCell id="XefmnypE6_ZuSq_uZl9b-76" value="&lt;font style=&quot;font-size: 9px;&quot;&gt;Кількість&lt;/font&gt;" style="text;html=1;strokeColor=none;fillColor=none;align=center;verticalAlign=middle;whiteSpace=wrap;rounded=0;rotation=45;" vertex="1" parent="1">
          <mxGeometry x="630" y="960" width="60" height="30" as="geometry" />
        </mxCell>
        <mxCell id="XefmnypE6_ZuSq_uZl9b-77" value="" style="ellipse;whiteSpace=wrap;html=1;aspect=fixed;" vertex="1" parent="1">
          <mxGeometry x="495" y="975" width="20" height="20" as="geometry" />
        </mxCell>
        <mxCell id="XefmnypE6_ZuSq_uZl9b-78" value="" style="ellipse;whiteSpace=wrap;html=1;aspect=fixed;" vertex="1" parent="1">
          <mxGeometry x="580" y="975" width="20" height="20" as="geometry" />
        </mxCell>
        <mxCell id="XefmnypE6_ZuSq_uZl9b-79" value="" style="endArrow=none;html=1;rounded=0;exitX=0.5;exitY=0;exitDx=0;exitDy=0;entryX=0.151;entryY=1;entryDx=0;entryDy=0;entryPerimeter=0;" edge="1" parent="1" source="XefmnypE6_ZuSq_uZl9b-77" target="XefmnypE6_ZuSq_uZl9b-60">
          <mxGeometry width="50" height="50" relative="1" as="geometry">
            <mxPoint x="550" y="1030" as="sourcePoint" />
            <mxPoint x="600" y="980" as="targetPoint" />
          </mxGeometry>
        </mxCell>
        <mxCell id="XefmnypE6_ZuSq_uZl9b-82" value="" style="endArrow=none;html=1;rounded=0;exitX=0.5;exitY=0;exitDx=0;exitDy=0;entryX=0.806;entryY=1.024;entryDx=0;entryDy=0;entryPerimeter=0;" edge="1" parent="1" source="XefmnypE6_ZuSq_uZl9b-78" target="XefmnypE6_ZuSq_uZl9b-60">
          <mxGeometry width="50" height="50" relative="1" as="geometry">
            <mxPoint x="580" y="1020" as="sourcePoint" />
            <mxPoint x="630" y="970" as="targetPoint" />
          </mxGeometry>
        </mxCell>
        <mxCell id="XefmnypE6_ZuSq_uZl9b-83" value="Ціна" style="text;html=1;strokeColor=none;fillColor=none;align=center;verticalAlign=middle;whiteSpace=wrap;rounded=0;" vertex="1" parent="1">
          <mxGeometry x="540" y="965" width="60" height="30" as="geometry" />
        </mxCell>
        <mxCell id="XefmnypE6_ZuSq_uZl9b-84" value="Кількість" style="text;html=1;strokeColor=none;fillColor=none;align=center;verticalAlign=middle;whiteSpace=wrap;rounded=0;" vertex="1" parent="1">
          <mxGeometry x="660" y="1030" width="60" height="30" as="geometry" />
        </mxCell>
        <mxCell id="XefmnypE6_ZuSq_uZl9b-85" value="Замовник" style="text;html=1;strokeColor=none;fillColor=none;align=center;verticalAlign=middle;whiteSpace=wrap;rounded=0;" vertex="1" parent="1">
          <mxGeometry x="690" y="965" width="60" height="30" as="geometry" />
        </mxCell>
        <mxCell id="XefmnypE6_ZuSq_uZl9b-86" value="Предмет" style="text;html=1;strokeColor=none;fillColor=none;align=center;verticalAlign=middle;whiteSpace=wrap;rounded=0;" vertex="1" parent="1">
          <mxGeometry x="440" y="970" width="60" height="30" as="geometry" />
        </mxCell>
        <mxCell id="XefmnypE6_ZuSq_uZl9b-87" value="" style="endArrow=classic;html=1;rounded=0;exitX=0.25;exitY=0;exitDx=0;exitDy=0;entryX=0.5;entryY=1;entryDx=0;entryDy=0;" edge="1" parent="1" source="XefmnypE6_ZuSq_uZl9b-62" target="XefmnypE6_ZuSq_uZl9b-77">
          <mxGeometry width="50" height="50" relative="1" as="geometry">
            <mxPoint x="640" y="1130" as="sourcePoint" />
            <mxPoint x="690" y="1080" as="targetPoint" />
          </mxGeometry>
        </mxCell>
        <mxCell id="XefmnypE6_ZuSq_uZl9b-88" value="" style="endArrow=classic;html=1;rounded=0;entryX=0.838;entryY=1.029;entryDx=0;entryDy=0;entryPerimeter=0;" edge="1" parent="1" source="XefmnypE6_ZuSq_uZl9b-62" target="XefmnypE6_ZuSq_uZl9b-83">
          <mxGeometry width="50" height="50" relative="1" as="geometry">
            <mxPoint x="640" y="1130" as="sourcePoint" />
            <mxPoint x="690" y="1080" as="targetPoint" />
          </mxGeometry>
        </mxCell>
        <mxCell id="XefmnypE6_ZuSq_uZl9b-89" value="Предмет" style="text;html=1;strokeColor=none;fillColor=none;align=center;verticalAlign=middle;whiteSpace=wrap;rounded=0;" vertex="1" parent="1">
          <mxGeometry x="440" y="1110" width="60" height="30" as="geometry" />
        </mxCell>
        <mxCell id="XefmnypE6_ZuSq_uZl9b-90" value="Ціна" style="text;html=1;strokeColor=none;fillColor=none;align=center;verticalAlign=middle;whiteSpace=wrap;rounded=0;" vertex="1" parent="1">
          <mxGeometry x="510" y="1110" width="60" height="30" as="geometry" />
        </mxCell>
        <mxCell id="XefmnypE6_ZuSq_uZl9b-91" value="" style="ellipse;whiteSpace=wrap;html=1;aspect=fixed;fillColor=#FF3355;" vertex="1" parent="1">
          <mxGeometry x="565" y="1380" width="80" height="80" as="geometry" />
        </mxCell>
        <mxCell id="XefmnypE6_ZuSq_uZl9b-92" value="" style="endArrow=classic;html=1;rounded=0;exitX=0.5;exitY=1;exitDx=0;exitDy=0;entryX=0.5;entryY=0;entryDx=0;entryDy=0;" edge="1" parent="1" source="XefmnypE6_ZuSq_uZl9b-91" target="XefmnypE6_ZuSq_uZl9b-93">
          <mxGeometry width="50" height="50" relative="1" as="geometry">
            <mxPoint x="620" y="1600" as="sourcePoint" />
            <mxPoint x="605" y="1570" as="targetPoint" />
          </mxGeometry>
        </mxCell>
        <mxCell id="XefmnypE6_ZuSq_uZl9b-93" value="Встановлення з&#39;єднання" style="rounded=1;whiteSpace=wrap;html=1;" vertex="1" parent="1">
          <mxGeometry x="545" y="1540" width="120" height="60" as="geometry" />
        </mxCell>
        <mxCell id="XefmnypE6_ZuSq_uZl9b-94" value="" style="endArrow=none;html=1;rounded=0;" edge="1" parent="1">
          <mxGeometry width="50" height="50" relative="1" as="geometry">
            <mxPoint x="120" y="1680" as="sourcePoint" />
            <mxPoint x="1080" y="1680" as="targetPoint" />
          </mxGeometry>
        </mxCell>
        <mxCell id="XefmnypE6_ZuSq_uZl9b-95" value="" style="endArrow=classic;html=1;rounded=0;exitX=0.5;exitY=1;exitDx=0;exitDy=0;entryX=0.5;entryY=0;entryDx=0;entryDy=0;" edge="1" parent="1">
          <mxGeometry width="50" height="50" relative="1" as="geometry">
            <mxPoint x="604.5" y="1600" as="sourcePoint" />
            <mxPoint x="604.5" y="1680" as="targetPoint" />
          </mxGeometry>
        </mxCell>
        <mxCell id="XefmnypE6_ZuSq_uZl9b-96" value="" style="endArrow=classic;html=1;rounded=0;exitX=0.5;exitY=1;exitDx=0;exitDy=0;entryX=0.5;entryY=0;entryDx=0;entryDy=0;" edge="1" parent="1">
          <mxGeometry width="50" height="50" relative="1" as="geometry">
            <mxPoint x="180" y="1680" as="sourcePoint" />
            <mxPoint x="180" y="1760" as="targetPoint" />
          </mxGeometry>
        </mxCell>
        <mxCell id="XefmnypE6_ZuSq_uZl9b-97" value="Вхід" style="rounded=1;whiteSpace=wrap;html=1;" vertex="1" parent="1">
          <mxGeometry x="120" y="1760" width="120" height="60" as="geometry" />
        </mxCell>
        <mxCell id="XefmnypE6_ZuSq_uZl9b-98" value="Реєстрація" style="rounded=1;whiteSpace=wrap;html=1;" vertex="1" parent="1">
          <mxGeometry x="860" y="1760" width="120" height="60" as="geometry" />
        </mxCell>
        <mxCell id="XefmnypE6_ZuSq_uZl9b-99" value="" style="endArrow=classic;html=1;rounded=0;exitX=0.5;exitY=1;exitDx=0;exitDy=0;entryX=0.5;entryY=0;entryDx=0;entryDy=0;" edge="1" parent="1">
          <mxGeometry width="50" height="50" relative="1" as="geometry">
            <mxPoint x="919.5" y="1680" as="sourcePoint" />
            <mxPoint x="919.5" y="1760" as="targetPoint" />
          </mxGeometry>
        </mxCell>
        <mxCell id="XefmnypE6_ZuSq_uZl9b-105" style="edgeStyle=orthogonalEdgeStyle;rounded=0;orthogonalLoop=1;jettySize=auto;html=1;entryX=0.5;entryY=0;entryDx=0;entryDy=0;" edge="1" parent="1" source="XefmnypE6_ZuSq_uZl9b-100" target="XefmnypE6_ZuSq_uZl9b-103">
          <mxGeometry relative="1" as="geometry" />
        </mxCell>
        <mxCell id="XefmnypE6_ZuSq_uZl9b-106" style="edgeStyle=orthogonalEdgeStyle;rounded=0;orthogonalLoop=1;jettySize=auto;html=1;entryX=0.5;entryY=0;entryDx=0;entryDy=0;" edge="1" parent="1" source="XefmnypE6_ZuSq_uZl9b-100" target="XefmnypE6_ZuSq_uZl9b-104">
          <mxGeometry relative="1" as="geometry" />
        </mxCell>
        <mxCell id="XefmnypE6_ZuSq_uZl9b-100" value="Так/Ні" style="rhombus;whiteSpace=wrap;html=1;" vertex="1" parent="1">
          <mxGeometry x="550" y="1780" width="80" height="80" as="geometry" />
        </mxCell>
        <mxCell id="XefmnypE6_ZuSq_uZl9b-101" value="" style="endArrow=classic;html=1;rounded=0;exitX=0;exitY=0.5;exitDx=0;exitDy=0;" edge="1" parent="1" source="XefmnypE6_ZuSq_uZl9b-98" target="XefmnypE6_ZuSq_uZl9b-100">
          <mxGeometry width="50" height="50" relative="1" as="geometry">
            <mxPoint x="890" y="1900" as="sourcePoint" />
            <mxPoint x="940" y="1850" as="targetPoint" />
          </mxGeometry>
        </mxCell>
        <mxCell id="XefmnypE6_ZuSq_uZl9b-102" value="" style="endArrow=classic;html=1;rounded=0;entryX=-0.012;entryY=0.425;entryDx=0;entryDy=0;entryPerimeter=0;" edge="1" parent="1" target="XefmnypE6_ZuSq_uZl9b-100">
          <mxGeometry width="50" height="50" relative="1" as="geometry">
            <mxPoint x="240" y="1790" as="sourcePoint" />
            <mxPoint x="290" y="1740" as="targetPoint" />
          </mxGeometry>
        </mxCell>
        <mxCell id="XefmnypE6_ZuSq_uZl9b-110" style="edgeStyle=orthogonalEdgeStyle;rounded=0;orthogonalLoop=1;jettySize=auto;html=1;entryX=0.5;entryY=0;entryDx=0;entryDy=0;" edge="1" parent="1" source="XefmnypE6_ZuSq_uZl9b-103" target="XefmnypE6_ZuSq_uZl9b-109">
          <mxGeometry relative="1" as="geometry" />
        </mxCell>
        <mxCell id="XefmnypE6_ZuSq_uZl9b-103" value="Перегляд товарів" style="rounded=1;whiteSpace=wrap;html=1;" vertex="1" parent="1">
          <mxGeometry x="395" y="1910" width="120" height="60" as="geometry" />
        </mxCell>
        <mxCell id="XefmnypE6_ZuSq_uZl9b-118" style="edgeStyle=orthogonalEdgeStyle;rounded=0;orthogonalLoop=1;jettySize=auto;html=1;" edge="1" parent="1" source="XefmnypE6_ZuSq_uZl9b-104">
          <mxGeometry relative="1" as="geometry">
            <mxPoint x="725" y="2220" as="targetPoint" />
          </mxGeometry>
        </mxCell>
        <mxCell id="XefmnypE6_ZuSq_uZl9b-104" value="Перегляд товарів" style="rounded=1;whiteSpace=wrap;html=1;" vertex="1" parent="1">
          <mxGeometry x="665" y="1910" width="120" height="60" as="geometry" />
        </mxCell>
        <mxCell id="XefmnypE6_ZuSq_uZl9b-107" value="Так" style="text;html=1;strokeColor=none;fillColor=none;align=center;verticalAlign=middle;whiteSpace=wrap;rounded=0;" vertex="1" parent="1">
          <mxGeometry x="405" y="1840" width="60" height="30" as="geometry" />
        </mxCell>
        <mxCell id="XefmnypE6_ZuSq_uZl9b-108" value="Ні" style="text;html=1;strokeColor=none;fillColor=none;align=center;verticalAlign=middle;whiteSpace=wrap;rounded=0;" vertex="1" parent="1">
          <mxGeometry x="715" y="1840" width="60" height="30" as="geometry" />
        </mxCell>
        <mxCell id="XefmnypE6_ZuSq_uZl9b-113" style="edgeStyle=orthogonalEdgeStyle;rounded=0;orthogonalLoop=1;jettySize=auto;html=1;entryX=0.5;entryY=0;entryDx=0;entryDy=0;" edge="1" parent="1" source="XefmnypE6_ZuSq_uZl9b-109" target="XefmnypE6_ZuSq_uZl9b-111">
          <mxGeometry relative="1" as="geometry" />
        </mxCell>
        <mxCell id="XefmnypE6_ZuSq_uZl9b-122" style="edgeStyle=orthogonalEdgeStyle;rounded=0;orthogonalLoop=1;jettySize=auto;html=1;entryX=0;entryY=0.5;entryDx=0;entryDy=0;" edge="1" parent="1" source="XefmnypE6_ZuSq_uZl9b-109" target="XefmnypE6_ZuSq_uZl9b-112">
          <mxGeometry relative="1" as="geometry" />
        </mxCell>
        <mxCell id="XefmnypE6_ZuSq_uZl9b-109" value="Користувач - Продавець?&lt;br&gt;Так/Ні" style="rhombus;whiteSpace=wrap;html=1;" vertex="1" parent="1">
          <mxGeometry x="392.5" y="2000" width="125" height="120" as="geometry" />
        </mxCell>
        <mxCell id="XefmnypE6_ZuSq_uZl9b-116" style="edgeStyle=orthogonalEdgeStyle;rounded=0;orthogonalLoop=1;jettySize=auto;html=1;" edge="1" parent="1" source="XefmnypE6_ZuSq_uZl9b-111">
          <mxGeometry relative="1" as="geometry">
            <mxPoint x="310" y="2220" as="targetPoint" />
          </mxGeometry>
        </mxCell>
        <mxCell id="XefmnypE6_ZuSq_uZl9b-111" value="Доступ до функцій&amp;nbsp;&lt;br&gt;продавця" style="rounded=1;whiteSpace=wrap;html=1;" vertex="1" parent="1">
          <mxGeometry x="250" y="2130" width="120" height="60" as="geometry" />
        </mxCell>
        <mxCell id="XefmnypE6_ZuSq_uZl9b-124" style="edgeStyle=orthogonalEdgeStyle;rounded=0;orthogonalLoop=1;jettySize=auto;html=1;" edge="1" parent="1" source="XefmnypE6_ZuSq_uZl9b-112">
          <mxGeometry relative="1" as="geometry">
            <mxPoint x="560" y="2220" as="targetPoint" />
          </mxGeometry>
        </mxCell>
        <mxCell id="XefmnypE6_ZuSq_uZl9b-112" value="Доступ до покупки" style="rounded=1;whiteSpace=wrap;html=1;" vertex="1" parent="1">
          <mxGeometry x="500" y="2130" width="120" height="60" as="geometry" />
        </mxCell>
        <mxCell id="XefmnypE6_ZuSq_uZl9b-115" value="" style="endArrow=none;html=1;rounded=0;" edge="1" parent="1">
          <mxGeometry width="50" height="50" relative="1" as="geometry">
            <mxPoint x="110" y="2220" as="sourcePoint" />
            <mxPoint x="1070" y="2220" as="targetPoint" />
          </mxGeometry>
        </mxCell>
        <mxCell id="XefmnypE6_ZuSq_uZl9b-134" style="edgeStyle=orthogonalEdgeStyle;rounded=0;orthogonalLoop=1;jettySize=auto;html=1;" edge="1" parent="1" source="XefmnypE6_ZuSq_uZl9b-125">
          <mxGeometry relative="1" as="geometry">
            <mxPoint x="250" y="2390" as="targetPoint" />
          </mxGeometry>
        </mxCell>
        <mxCell id="XefmnypE6_ZuSq_uZl9b-125" value="Створення оголошень" style="rounded=1;whiteSpace=wrap;html=1;" vertex="1" parent="1">
          <mxGeometry x="190" y="2240" width="120" height="60" as="geometry" />
        </mxCell>
        <mxCell id="XefmnypE6_ZuSq_uZl9b-136" style="edgeStyle=orthogonalEdgeStyle;rounded=0;orthogonalLoop=1;jettySize=auto;html=1;" edge="1" parent="1" source="XefmnypE6_ZuSq_uZl9b-126">
          <mxGeometry relative="1" as="geometry">
            <mxPoint x="575" y="2390" as="targetPoint" />
          </mxGeometry>
        </mxCell>
        <mxCell id="XefmnypE6_ZuSq_uZl9b-126" value="Купівля товару" style="rounded=1;whiteSpace=wrap;html=1;" vertex="1" parent="1">
          <mxGeometry x="515" y="2240" width="120" height="60" as="geometry" />
        </mxCell>
        <mxCell id="XefmnypE6_ZuSq_uZl9b-137" style="edgeStyle=orthogonalEdgeStyle;rounded=0;orthogonalLoop=1;jettySize=auto;html=1;" edge="1" parent="1" source="XefmnypE6_ZuSq_uZl9b-127">
          <mxGeometry relative="1" as="geometry">
            <mxPoint x="735" y="2390" as="targetPoint" />
          </mxGeometry>
        </mxCell>
        <mxCell id="XefmnypE6_ZuSq_uZl9b-127" value="Перегляд товарів" style="rounded=1;whiteSpace=wrap;html=1;" vertex="1" parent="1">
          <mxGeometry x="675" y="2240" width="120" height="60" as="geometry" />
        </mxCell>
        <mxCell id="XefmnypE6_ZuSq_uZl9b-135" style="edgeStyle=orthogonalEdgeStyle;rounded=0;orthogonalLoop=1;jettySize=auto;html=1;" edge="1" parent="1" source="XefmnypE6_ZuSq_uZl9b-128">
          <mxGeometry relative="1" as="geometry">
            <mxPoint x="415" y="2390" as="targetPoint" />
          </mxGeometry>
        </mxCell>
        <mxCell id="XefmnypE6_ZuSq_uZl9b-128" value="Перегляд рекомендованих товарів" style="rounded=1;whiteSpace=wrap;html=1;" vertex="1" parent="1">
          <mxGeometry x="355" y="2240" width="120" height="60" as="geometry" />
        </mxCell>
        <mxCell id="XefmnypE6_ZuSq_uZl9b-129" style="edgeStyle=orthogonalEdgeStyle;rounded=0;orthogonalLoop=1;jettySize=auto;html=1;" edge="1" parent="1">
          <mxGeometry relative="1" as="geometry">
            <mxPoint x="249.84" y="2240" as="targetPoint" />
            <mxPoint x="249.84" y="2220" as="sourcePoint" />
            <Array as="points">
              <mxPoint x="249.84" y="2230" />
              <mxPoint x="249.84" y="2230" />
            </Array>
          </mxGeometry>
        </mxCell>
        <mxCell id="XefmnypE6_ZuSq_uZl9b-130" style="edgeStyle=orthogonalEdgeStyle;rounded=0;orthogonalLoop=1;jettySize=auto;html=1;" edge="1" parent="1">
          <mxGeometry relative="1" as="geometry">
            <mxPoint x="414.95000000000005" y="2240" as="targetPoint" />
            <mxPoint x="414.95000000000005" y="2220" as="sourcePoint" />
            <Array as="points">
              <mxPoint x="414.95000000000005" y="2230" />
              <mxPoint x="414.95000000000005" y="2230" />
            </Array>
          </mxGeometry>
        </mxCell>
        <mxCell id="XefmnypE6_ZuSq_uZl9b-131" style="edgeStyle=orthogonalEdgeStyle;rounded=0;orthogonalLoop=1;jettySize=auto;html=1;" edge="1" parent="1">
          <mxGeometry relative="1" as="geometry">
            <mxPoint x="574.9200000000001" y="2240" as="targetPoint" />
            <mxPoint x="574.9200000000001" y="2220" as="sourcePoint" />
            <Array as="points">
              <mxPoint x="574.9200000000001" y="2230" />
              <mxPoint x="574.9200000000001" y="2230" />
            </Array>
          </mxGeometry>
        </mxCell>
        <mxCell id="XefmnypE6_ZuSq_uZl9b-132" style="edgeStyle=orthogonalEdgeStyle;rounded=0;orthogonalLoop=1;jettySize=auto;html=1;" edge="1" parent="1">
          <mxGeometry relative="1" as="geometry">
            <mxPoint x="724.94" y="2240" as="targetPoint" />
            <mxPoint x="724.94" y="2220" as="sourcePoint" />
            <Array as="points">
              <mxPoint x="724.94" y="2230" />
              <mxPoint x="724.94" y="2230" />
            </Array>
          </mxGeometry>
        </mxCell>
        <mxCell id="XefmnypE6_ZuSq_uZl9b-133" value="" style="endArrow=none;html=1;rounded=0;" edge="1" parent="1">
          <mxGeometry width="50" height="50" relative="1" as="geometry">
            <mxPoint x="125" y="2390" as="sourcePoint" />
            <mxPoint x="1085" y="2390" as="targetPoint" />
          </mxGeometry>
        </mxCell>
        <mxCell id="XefmnypE6_ZuSq_uZl9b-138" value="Роботу з сайтом завершено" style="rounded=1;whiteSpace=wrap;html=1;" vertex="1" parent="1">
          <mxGeometry x="505" y="2480" width="120" height="60" as="geometry" />
        </mxCell>
        <mxCell id="XefmnypE6_ZuSq_uZl9b-139" style="edgeStyle=orthogonalEdgeStyle;rounded=0;orthogonalLoop=1;jettySize=auto;html=1;" edge="1" parent="1">
          <mxGeometry relative="1" as="geometry">
            <mxPoint x="565" y="2480" as="targetPoint" />
            <mxPoint x="565" y="2390" as="sourcePoint" />
          </mxGeometry>
        </mxCell>
        <mxCell id="XefmnypE6_ZuSq_uZl9b-140" value="" style="ellipse;whiteSpace=wrap;html=1;aspect=fixed;fillColor=#FF3355;" vertex="1" parent="1">
          <mxGeometry x="525" y="2570" width="80" height="80" as="geometry" />
        </mxCell>
        <mxCell id="XefmnypE6_ZuSq_uZl9b-141" style="edgeStyle=orthogonalEdgeStyle;rounded=0;orthogonalLoop=1;jettySize=auto;html=1;entryX=0.504;entryY=-0.023;entryDx=0;entryDy=0;entryPerimeter=0;" edge="1" parent="1" source="XefmnypE6_ZuSq_uZl9b-138" target="XefmnypE6_ZuSq_uZl9b-140">
          <mxGeometry relative="1" as="geometry" />
        </mxCell>
        <mxCell id="XefmnypE6_ZuSq_uZl9b-142" value="Серверна частина сайту" style="shape=folder;fontStyle=1;spacingTop=10;tabWidth=40;tabHeight=14;tabPosition=left;html=1;whiteSpace=wrap;" vertex="1" parent="1">
          <mxGeometry x="121" y="2870" width="109" height="100" as="geometry" />
        </mxCell>
        <mxCell id="XefmnypE6_ZuSq_uZl9b-143" value="Клієнтська частина сайту" style="shape=folder;fontStyle=1;spacingTop=10;tabWidth=40;tabHeight=14;tabPosition=left;html=1;whiteSpace=wrap;" vertex="1" parent="1">
          <mxGeometry x="516" y="2870" width="109" height="100" as="geometry" />
        </mxCell>
        <mxCell id="XefmnypE6_ZuSq_uZl9b-144" value="БД" style="shape=folder;fontStyle=1;spacingTop=10;tabWidth=40;tabHeight=14;tabPosition=left;html=1;whiteSpace=wrap;" vertex="1" parent="1">
          <mxGeometry x="520.5" y="3150" width="109" height="100" as="geometry" />
        </mxCell>
        <mxCell id="XefmnypE6_ZuSq_uZl9b-145" value="Браузер" style="shape=folder;fontStyle=1;spacingTop=10;tabWidth=40;tabHeight=14;tabPosition=left;html=1;whiteSpace=wrap;" vertex="1" parent="1">
          <mxGeometry x="125.5" y="3150" width="109" height="100" as="geometry" />
        </mxCell>
        <mxCell id="XefmnypE6_ZuSq_uZl9b-146" value="Сервер" style="shape=folder;fontStyle=1;spacingTop=10;tabWidth=40;tabHeight=14;tabPosition=left;html=1;whiteSpace=wrap;" vertex="1" parent="1">
          <mxGeometry x="316" y="3000" width="109" height="100" as="geometry" />
        </mxCell>
        <mxCell id="XefmnypE6_ZuSq_uZl9b-147" value="Отримує доступ" style="endArrow=open;endSize=12;dashed=1;html=1;rounded=0;exitX=0;exitY=0;exitDx=109;exitDy=100;exitPerimeter=0;entryX=0.02;entryY=0.424;entryDx=0;entryDy=0;entryPerimeter=0;" edge="1" parent="1" source="XefmnypE6_ZuSq_uZl9b-142" target="XefmnypE6_ZuSq_uZl9b-146">
          <mxGeometry width="160" relative="1" as="geometry">
            <mxPoint x="280" y="2970" as="sourcePoint" />
            <mxPoint x="440" y="2970" as="targetPoint" />
          </mxGeometry>
        </mxCell>
        <mxCell id="XefmnypE6_ZuSq_uZl9b-148" value="Отримує доступ" style="endArrow=open;endSize=12;dashed=1;html=1;rounded=0;exitX=0;exitY=0;exitDx=0;exitDy=57;exitPerimeter=0;entryX=0;entryY=0;entryDx=109;entryDy=57;entryPerimeter=0;" edge="1" parent="1" source="XefmnypE6_ZuSq_uZl9b-143" target="XefmnypE6_ZuSq_uZl9b-142">
          <mxGeometry width="160" relative="1" as="geometry">
            <mxPoint x="280" y="2970" as="sourcePoint" />
            <mxPoint x="440" y="2970" as="targetPoint" />
          </mxGeometry>
        </mxCell>
        <mxCell id="XefmnypE6_ZuSq_uZl9b-149" value="Отримує доступ" style="endArrow=open;endSize=12;dashed=1;html=1;rounded=0;exitX=0;exitY=0;exitDx=0;exitDy=100;exitPerimeter=0;entryX=1.005;entryY=0.456;entryDx=0;entryDy=0;entryPerimeter=0;" edge="1" parent="1" source="XefmnypE6_ZuSq_uZl9b-143" target="XefmnypE6_ZuSq_uZl9b-146">
          <mxGeometry width="160" relative="1" as="geometry">
            <mxPoint x="280" y="2970" as="sourcePoint" />
            <mxPoint x="440" y="2970" as="targetPoint" />
          </mxGeometry>
        </mxCell>
        <mxCell id="XefmnypE6_ZuSq_uZl9b-150" value="Отримує доступ" style="endArrow=open;endSize=12;dashed=1;html=1;rounded=0;exitX=0;exitY=0;exitDx=109;exitDy=100;exitPerimeter=0;entryX=-0.002;entryY=0.482;entryDx=0;entryDy=0;entryPerimeter=0;" edge="1" parent="1" source="XefmnypE6_ZuSq_uZl9b-146" target="XefmnypE6_ZuSq_uZl9b-144">
          <mxGeometry width="160" relative="1" as="geometry">
            <mxPoint x="280" y="2970" as="sourcePoint" />
            <mxPoint x="440" y="2970" as="targetPoint" />
          </mxGeometry>
        </mxCell>
        <mxCell id="XefmnypE6_ZuSq_uZl9b-151" value="Залежність" style="endArrow=open;endSize=12;dashed=1;html=1;rounded=0;exitX=0;exitY=0;exitDx=0;exitDy=100;exitPerimeter=0;entryX=0;entryY=0;entryDx=109;entryDy=57;entryPerimeter=0;" edge="1" parent="1" source="XefmnypE6_ZuSq_uZl9b-146" target="XefmnypE6_ZuSq_uZl9b-145">
          <mxGeometry width="160" relative="1" as="geometry">
            <mxPoint x="280" y="2970" as="sourcePoint" />
            <mxPoint x="440" y="2970" as="targetPoint" />
          </mxGeometry>
        </mxCell>
        <mxCell id="XefmnypE6_ZuSq_uZl9b-152" value="БД" style="shape=umlActor;verticalLabelPosition=bottom;verticalAlign=top;html=1;" vertex="1" parent="1">
          <mxGeometry x="956.5" y="3620" width="30" height="60" as="geometry" />
        </mxCell>
        <mxCell id="XefmnypE6_ZuSq_uZl9b-153" value="Покупець" style="shape=umlActor;verticalLabelPosition=bottom;verticalAlign=top;html=1;" vertex="1" parent="1">
          <mxGeometry x="950" y="3870" width="30" height="60" as="geometry" />
        </mxCell>
        <mxCell id="XefmnypE6_ZuSq_uZl9b-154" value="Продавець" style="shape=umlActor;verticalLabelPosition=bottom;verticalAlign=top;html=1;" vertex="1" parent="1">
          <mxGeometry x="955.5" y="3730" width="30" height="60" as="geometry" />
        </mxCell>
        <mxCell id="XefmnypE6_ZuSq_uZl9b-155" value="Сервіс онлайн-платежів" style="shape=umlActor;verticalLabelPosition=bottom;verticalAlign=top;html=1;" vertex="1" parent="1">
          <mxGeometry x="955.5" y="4050" width="30" height="60" as="geometry" />
        </mxCell>
        <mxCell id="XefmnypE6_ZuSq_uZl9b-156" value="Доступ до сайту" style="ellipse;whiteSpace=wrap;html=1;" vertex="1" parent="1">
          <mxGeometry x="125.5" y="3790" width="120" height="80" as="geometry" />
        </mxCell>
        <mxCell id="XefmnypE6_ZuSq_uZl9b-157" value="Аутентифікація&amp;nbsp;" style="ellipse;whiteSpace=wrap;html=1;" vertex="1" parent="1">
          <mxGeometry x="345.5" y="3600" width="120" height="80" as="geometry" />
        </mxCell>
        <mxCell id="XefmnypE6_ZuSq_uZl9b-158" value="Реєстрація" style="ellipse;whiteSpace=wrap;html=1;" vertex="1" parent="1">
          <mxGeometry x="615.5" y="3590" width="120" height="60" as="geometry" />
        </mxCell>
        <mxCell id="XefmnypE6_ZuSq_uZl9b-159" value="Вхід" style="ellipse;whiteSpace=wrap;html=1;" vertex="1" parent="1">
          <mxGeometry x="560.5" y="3690" width="120" height="60" as="geometry" />
        </mxCell>
        <mxCell id="XefmnypE6_ZuSq_uZl9b-160" value="Можливість створити оголошення" style="ellipse;whiteSpace=wrap;html=1;" vertex="1" parent="1">
          <mxGeometry x="410.5" y="3770" width="120" height="80" as="geometry" />
        </mxCell>
        <mxCell id="XefmnypE6_ZuSq_uZl9b-161" value="Переглянути товари" style="ellipse;whiteSpace=wrap;html=1;" vertex="1" parent="1">
          <mxGeometry x="410.5" y="3880" width="120" height="80" as="geometry" />
        </mxCell>
        <mxCell id="XefmnypE6_ZuSq_uZl9b-162" value="Порахувати суму до сплати" style="ellipse;whiteSpace=wrap;html=1;" vertex="1" parent="1">
          <mxGeometry x="413" y="3970" width="120" height="80" as="geometry" />
        </mxCell>
        <mxCell id="XefmnypE6_ZuSq_uZl9b-163" value="Переглянути рекомендовані товари" style="ellipse;whiteSpace=wrap;html=1;" vertex="1" parent="1">
          <mxGeometry x="410.5" y="4060" width="120" height="80" as="geometry" />
        </mxCell>
        <mxCell id="XefmnypE6_ZuSq_uZl9b-164" value="Оплатити покупки" style="ellipse;whiteSpace=wrap;html=1;" vertex="1" parent="1">
          <mxGeometry x="413" y="4160" width="120" height="80" as="geometry" />
        </mxCell>
        <mxCell id="XefmnypE6_ZuSq_uZl9b-165" value="Оплата зручним для користувача шляхом" style="ellipse;whiteSpace=wrap;html=1;" vertex="1" parent="1">
          <mxGeometry x="615.5" y="4140" width="120" height="80" as="geometry" />
        </mxCell>
        <mxCell id="XefmnypE6_ZuSq_uZl9b-166" value="Можливість оновити список рекомендованих товарів" style="ellipse;whiteSpace=wrap;html=1;" vertex="1" parent="1">
          <mxGeometry x="590.5" y="4010" width="170" height="100" as="geometry" />
        </mxCell>
        <mxCell id="XefmnypE6_ZuSq_uZl9b-167" value="Порахувати ціну товарів" style="ellipse;whiteSpace=wrap;html=1;" vertex="1" parent="1">
          <mxGeometry x="629.5" y="3910" width="120" height="80" as="geometry" />
        </mxCell>
        <mxCell id="XefmnypE6_ZuSq_uZl9b-168" value="Запит до БД" style="ellipse;whiteSpace=wrap;html=1;" vertex="1" parent="1">
          <mxGeometry x="575" y="3810" width="120" height="80" as="geometry" />
        </mxCell>
        <mxCell id="XefmnypE6_ZuSq_uZl9b-169" value="Включає в себе" style="endArrow=open;endSize=12;dashed=1;html=1;rounded=0;exitX=0.571;exitY=-0.031;exitDx=0;exitDy=0;exitPerimeter=0;entryX=0;entryY=1;entryDx=0;entryDy=0;" edge="1" parent="1" source="XefmnypE6_ZuSq_uZl9b-156" target="XefmnypE6_ZuSq_uZl9b-157">
          <mxGeometry width="160" relative="1" as="geometry">
            <mxPoint x="190" y="3760" as="sourcePoint" />
            <mxPoint x="350" y="3760" as="targetPoint" />
          </mxGeometry>
        </mxCell>
        <mxCell id="XefmnypE6_ZuSq_uZl9b-170" value="Включає в себе" style="endArrow=open;endSize=12;dashed=1;html=1;rounded=0;exitX=0.571;exitY=-0.031;exitDx=0;exitDy=0;exitPerimeter=0;entryX=0;entryY=0.5;entryDx=0;entryDy=0;" edge="1" parent="1" target="XefmnypE6_ZuSq_uZl9b-160">
          <mxGeometry width="160" relative="1" as="geometry">
            <mxPoint x="245.5" y="3830" as="sourcePoint" />
            <mxPoint x="414.5" y="3710" as="targetPoint" />
          </mxGeometry>
        </mxCell>
        <mxCell id="XefmnypE6_ZuSq_uZl9b-174" value="" style="endArrow=diamondThin;endFill=1;endSize=24;html=1;rounded=0;exitX=1;exitY=0.5;exitDx=0;exitDy=0;" edge="1" parent="1" source="XefmnypE6_ZuSq_uZl9b-160">
          <mxGeometry width="160" relative="1" as="geometry">
            <mxPoint x="510" y="3910" as="sourcePoint" />
            <mxPoint x="950" y="3760" as="targetPoint" />
          </mxGeometry>
        </mxCell>
        <mxCell id="XefmnypE6_ZuSq_uZl9b-175" value="Включає в себе" style="endArrow=open;endSize=12;dashed=1;html=1;rounded=0;exitX=1;exitY=0.5;exitDx=0;exitDy=0;" edge="1" parent="1" source="XefmnypE6_ZuSq_uZl9b-156">
          <mxGeometry width="160" relative="1" as="geometry">
            <mxPoint x="255.5" y="3840" as="sourcePoint" />
            <mxPoint x="410" y="3910" as="targetPoint" />
          </mxGeometry>
        </mxCell>
        <mxCell id="XefmnypE6_ZuSq_uZl9b-176" value="" style="endArrow=none;html=1;rounded=0;entryX=0.5;entryY=0.5;entryDx=0;entryDy=0;entryPerimeter=0;exitX=0.987;exitY=0.646;exitDx=0;exitDy=0;exitPerimeter=0;" edge="1" parent="1" source="XefmnypE6_ZuSq_uZl9b-158" target="XefmnypE6_ZuSq_uZl9b-153">
          <mxGeometry width="50" height="50" relative="1" as="geometry">
            <mxPoint x="560" y="3930" as="sourcePoint" />
            <mxPoint x="610" y="3880" as="targetPoint" />
          </mxGeometry>
        </mxCell>
        <mxCell id="XefmnypE6_ZuSq_uZl9b-177" value="" style="endArrow=none;html=1;rounded=0;entryX=0.5;entryY=0.5;entryDx=0;entryDy=0;entryPerimeter=0;exitX=1;exitY=0.5;exitDx=0;exitDy=0;" edge="1" parent="1" source="XefmnypE6_ZuSq_uZl9b-159" target="XefmnypE6_ZuSq_uZl9b-153">
          <mxGeometry width="50" height="50" relative="1" as="geometry">
            <mxPoint x="709" y="3650" as="sourcePoint" />
            <mxPoint x="940" y="3921" as="targetPoint" />
          </mxGeometry>
        </mxCell>
        <mxCell id="XefmnypE6_ZuSq_uZl9b-178" value="" style="endArrow=classic;html=1;rounded=0;entryX=1.04;entryY=0.641;entryDx=0;entryDy=0;entryPerimeter=0;" edge="1" parent="1" target="XefmnypE6_ZuSq_uZl9b-157">
          <mxGeometry width="50" height="50" relative="1" as="geometry">
            <mxPoint x="560" y="3720" as="sourcePoint" />
            <mxPoint x="610" y="3880" as="targetPoint" />
          </mxGeometry>
        </mxCell>
        <mxCell id="XefmnypE6_ZuSq_uZl9b-179" value="" style="endArrow=classic;html=1;rounded=0;" edge="1" parent="1">
          <mxGeometry width="50" height="50" relative="1" as="geometry">
            <mxPoint x="615.5" y="3620" as="sourcePoint" />
            <mxPoint x="470" y="3630" as="targetPoint" />
          </mxGeometry>
        </mxCell>
        <mxCell id="XefmnypE6_ZuSq_uZl9b-180" value="" style="endArrow=none;dashed=1;html=1;dashPattern=1 3;strokeWidth=2;rounded=0;" edge="1" parent="1">
          <mxGeometry width="50" height="50" relative="1" as="geometry">
            <mxPoint x="470" y="3770" as="sourcePoint" />
            <mxPoint x="460" y="3740" as="targetPoint" />
          </mxGeometry>
        </mxCell>
        <mxCell id="XefmnypE6_ZuSq_uZl9b-181" value="Тільки для продавців" style="shape=note;whiteSpace=wrap;html=1;backgroundOutline=1;darkOpacity=0.05;size=21;" vertex="1" parent="1">
          <mxGeometry x="425" y="3690" width="65" height="70" as="geometry" />
        </mxCell>
        <mxCell id="XefmnypE6_ZuSq_uZl9b-182" value="Включає в себе" style="endArrow=open;endSize=12;dashed=1;html=1;rounded=0;exitX=1;exitY=0.5;exitDx=0;exitDy=0;entryX=0;entryY=0.5;entryDx=0;entryDy=0;" edge="1" parent="1" source="XefmnypE6_ZuSq_uZl9b-156" target="XefmnypE6_ZuSq_uZl9b-162">
          <mxGeometry width="160" relative="1" as="geometry">
            <mxPoint x="241" y="3880" as="sourcePoint" />
            <mxPoint x="405" y="3960" as="targetPoint" />
          </mxGeometry>
        </mxCell>
        <mxCell id="XefmnypE6_ZuSq_uZl9b-183" value="Включає в себе" style="endArrow=open;endSize=12;dashed=1;html=1;rounded=0;exitX=1;exitY=0.5;exitDx=0;exitDy=0;" edge="1" parent="1">
          <mxGeometry width="160" relative="1" as="geometry">
            <mxPoint x="203" y="3870" as="sourcePoint" />
            <mxPoint x="410" y="4100" as="targetPoint" />
          </mxGeometry>
        </mxCell>
        <mxCell id="XefmnypE6_ZuSq_uZl9b-184" value="Включає в себе" style="endArrow=open;endSize=12;dashed=1;html=1;rounded=0;entryX=0;entryY=0.5;entryDx=0;entryDy=0;" edge="1" parent="1" target="XefmnypE6_ZuSq_uZl9b-164">
          <mxGeometry width="160" relative="1" as="geometry">
            <mxPoint x="200" y="3870" as="sourcePoint" />
            <mxPoint x="383.5" y="4120" as="targetPoint" />
          </mxGeometry>
        </mxCell>
        <mxCell id="XefmnypE6_ZuSq_uZl9b-185" value="Включає&lt;br&gt;в себе" style="endArrow=open;endSize=12;dashed=1;html=1;rounded=0;entryX=0.056;entryY=0.8;entryDx=0;entryDy=0;entryPerimeter=0;" edge="1" parent="1" target="XefmnypE6_ZuSq_uZl9b-166">
          <mxGeometry width="160" relative="1" as="geometry">
            <mxPoint x="530" y="4100" as="sourcePoint" />
            <mxPoint x="690" y="4100" as="targetPoint" />
          </mxGeometry>
        </mxCell>
        <mxCell id="XefmnypE6_ZuSq_uZl9b-186" value="Включає в себе" style="endArrow=open;endSize=12;dashed=1;html=1;rounded=0;entryX=0.262;entryY=0.996;entryDx=0;entryDy=0;entryPerimeter=0;" edge="1" parent="1" target="XefmnypE6_ZuSq_uZl9b-168">
          <mxGeometry width="160" relative="1" as="geometry">
            <mxPoint x="510" y="4070" as="sourcePoint" />
            <mxPoint x="670" y="4070" as="targetPoint" />
          </mxGeometry>
        </mxCell>
        <mxCell id="XefmnypE6_ZuSq_uZl9b-187" value="Включає в себе" style="endArrow=open;endSize=12;dashed=1;html=1;rounded=0;" edge="1" parent="1" target="XefmnypE6_ZuSq_uZl9b-168">
          <mxGeometry width="160" relative="1" as="geometry">
            <mxPoint x="533" y="3920" as="sourcePoint" />
            <mxPoint x="629" y="3740" as="targetPoint" />
          </mxGeometry>
        </mxCell>
        <mxCell id="XefmnypE6_ZuSq_uZl9b-188" value="" style="endArrow=none;html=1;rounded=0;exitX=1;exitY=0.5;exitDx=0;exitDy=0;" edge="1" parent="1" source="XefmnypE6_ZuSq_uZl9b-158" target="XefmnypE6_ZuSq_uZl9b-152">
          <mxGeometry width="50" height="50" relative="1" as="geometry">
            <mxPoint x="740" y="3620" as="sourcePoint" />
            <mxPoint x="790" y="3570" as="targetPoint" />
          </mxGeometry>
        </mxCell>
        <mxCell id="XefmnypE6_ZuSq_uZl9b-189" value="" style="endArrow=none;html=1;rounded=0;" edge="1" parent="1">
          <mxGeometry width="50" height="50" relative="1" as="geometry">
            <mxPoint x="680" y="3720" as="sourcePoint" />
            <mxPoint x="950" y="3650" as="targetPoint" />
          </mxGeometry>
        </mxCell>
        <mxCell id="XefmnypE6_ZuSq_uZl9b-190" value="" style="endArrow=none;html=1;rounded=0;exitX=1;exitY=0.5;exitDx=0;exitDy=0;" edge="1" parent="1" source="XefmnypE6_ZuSq_uZl9b-159">
          <mxGeometry width="50" height="50" relative="1" as="geometry">
            <mxPoint x="690" y="3730" as="sourcePoint" />
            <mxPoint x="950" y="3750" as="targetPoint" />
          </mxGeometry>
        </mxCell>
        <mxCell id="XefmnypE6_ZuSq_uZl9b-191" value="" style="endArrow=none;html=1;rounded=0;exitX=1;exitY=0.5;exitDx=0;exitDy=0;entryX=0.15;entryY=0.833;entryDx=0;entryDy=0;entryPerimeter=0;" edge="1" parent="1" source="XefmnypE6_ZuSq_uZl9b-159" target="XefmnypE6_ZuSq_uZl9b-154">
          <mxGeometry width="50" height="50" relative="1" as="geometry">
            <mxPoint x="690" y="3730" as="sourcePoint" />
            <mxPoint x="960" y="3760" as="targetPoint" />
          </mxGeometry>
        </mxCell>
        <mxCell id="XefmnypE6_ZuSq_uZl9b-192" value="Включає&lt;br&gt;в себе" style="endArrow=open;endSize=12;dashed=1;html=1;rounded=0;entryX=0.955;entryY=0.698;entryDx=0;entryDy=0;entryPerimeter=0;" edge="1" parent="1" target="XefmnypE6_ZuSq_uZl9b-168">
          <mxGeometry width="160" relative="1" as="geometry">
            <mxPoint x="696.68" y="3910" as="sourcePoint" />
            <mxPoint x="699.9999999999999" y="3867.5199999999995" as="targetPoint" />
          </mxGeometry>
        </mxCell>
        <mxCell id="XefmnypE6_ZuSq_uZl9b-193" value="Включає&lt;br&gt;в себе" style="endArrow=open;endSize=12;dashed=1;html=1;rounded=0;entryX=0.004;entryY=0.625;entryDx=0;entryDy=0;entryPerimeter=0;" edge="1" parent="1" target="XefmnypE6_ZuSq_uZl9b-167">
          <mxGeometry x="0.4546" width="160" relative="1" as="geometry">
            <mxPoint x="520" y="4180" as="sourcePoint" />
            <mxPoint x="680" y="4180" as="targetPoint" />
            <mxPoint as="offset" />
          </mxGeometry>
        </mxCell>
        <mxCell id="XefmnypE6_ZuSq_uZl9b-194" value="" style="endArrow=none;html=1;rounded=0;" edge="1" parent="1">
          <mxGeometry width="50" height="50" relative="1" as="geometry">
            <mxPoint x="690" y="3830" as="sourcePoint" />
            <mxPoint x="950" y="3650" as="targetPoint" />
          </mxGeometry>
        </mxCell>
        <mxCell id="XefmnypE6_ZuSq_uZl9b-195" value="" style="endArrow=classic;html=1;rounded=0;exitX=0;exitY=0.5;exitDx=0;exitDy=0;entryX=1;entryY=0.5;entryDx=0;entryDy=0;" edge="1" parent="1" source="XefmnypE6_ZuSq_uZl9b-165" target="XefmnypE6_ZuSq_uZl9b-164">
          <mxGeometry width="50" height="50" relative="1" as="geometry">
            <mxPoint x="610" y="4180" as="sourcePoint" />
            <mxPoint x="660" y="4130" as="targetPoint" />
          </mxGeometry>
        </mxCell>
        <mxCell id="XefmnypE6_ZuSq_uZl9b-196" value="" style="endArrow=none;html=1;rounded=0;" edge="1" parent="1" target="XefmnypE6_ZuSq_uZl9b-155">
          <mxGeometry width="50" height="50" relative="1" as="geometry">
            <mxPoint x="730" y="4170" as="sourcePoint" />
            <mxPoint x="780" y="4120" as="targetPoint" />
          </mxGeometry>
        </mxCell>
        <mxCell id="XefmnypE6_ZuSq_uZl9b-197" value="БД" style="shape=umlActor;verticalLabelPosition=bottom;verticalAlign=top;html=1;" vertex="1" parent="1">
          <mxGeometry x="960" y="4460" width="30" height="60" as="geometry" />
        </mxCell>
        <mxCell id="XefmnypE6_ZuSq_uZl9b-198" value="Сервіс онлайн-платежів" style="shape=umlActor;verticalLabelPosition=bottom;verticalAlign=top;html=1;" vertex="1" parent="1">
          <mxGeometry x="960" y="4620" width="30" height="60" as="geometry" />
        </mxCell>
        <mxCell id="XefmnypE6_ZuSq_uZl9b-200" value="Зробити покупку" style="ellipse;whiteSpace=wrap;html=1;" vertex="1" parent="1">
          <mxGeometry x="595" y="4510" width="120" height="40" as="geometry" />
        </mxCell>
        <mxCell id="XefmnypE6_ZuSq_uZl9b-201" value="Зареєстрований&amp;nbsp;&lt;br&gt;користувач" style="shape=umlActor;verticalLabelPosition=bottom;verticalAlign=top;html=1;" vertex="1" parent="1">
          <mxGeometry x="265" y="4470" width="30" height="60" as="geometry" />
        </mxCell>
        <mxCell id="XefmnypE6_ZuSq_uZl9b-202" value="Покупець" style="shape=umlActor;verticalLabelPosition=bottom;verticalAlign=top;html=1;" vertex="1" parent="1">
          <mxGeometry x="365" y="4710" width="30" height="60" as="geometry" />
        </mxCell>
        <mxCell id="XefmnypE6_ZuSq_uZl9b-203" value="Продавець" style="shape=umlActor;verticalLabelPosition=bottom;verticalAlign=top;html=1;" vertex="1" parent="1">
          <mxGeometry x="365" y="4600" width="30" height="60" as="geometry" />
        </mxCell>
        <mxCell id="XefmnypE6_ZuSq_uZl9b-204" value="Користувач" style="shape=umlActor;verticalLabelPosition=bottom;verticalAlign=top;html=1;" vertex="1" parent="1">
          <mxGeometry x="140" y="4640" width="30" height="60" as="geometry" />
        </mxCell>
        <mxCell id="XefmnypE6_ZuSq_uZl9b-205" value="Новий &lt;br&gt;користувач" style="shape=umlActor;verticalLabelPosition=bottom;verticalAlign=top;html=1;" vertex="1" parent="1">
          <mxGeometry x="250" y="4780" width="30" height="60" as="geometry" />
        </mxCell>
        <mxCell id="XefmnypE6_ZuSq_uZl9b-207" value="" style="endArrow=classic;html=1;rounded=0;" edge="1" parent="1" source="XefmnypE6_ZuSq_uZl9b-205" target="XefmnypE6_ZuSq_uZl9b-204">
          <mxGeometry width="50" height="50" relative="1" as="geometry">
            <mxPoint x="220" y="4800" as="sourcePoint" />
            <mxPoint x="270" y="4750" as="targetPoint" />
          </mxGeometry>
        </mxCell>
        <mxCell id="XefmnypE6_ZuSq_uZl9b-208" value="" style="endArrow=classic;html=1;rounded=0;entryX=0.728;entryY=-0.005;entryDx=0;entryDy=0;entryPerimeter=0;" edge="1" parent="1" source="XefmnypE6_ZuSq_uZl9b-201" target="XefmnypE6_ZuSq_uZl9b-204">
          <mxGeometry width="50" height="50" relative="1" as="geometry">
            <mxPoint x="180" y="4550" as="sourcePoint" />
            <mxPoint x="230" y="4500" as="targetPoint" />
          </mxGeometry>
        </mxCell>
        <mxCell id="XefmnypE6_ZuSq_uZl9b-209" value="" style="endArrow=classic;html=1;rounded=0;" edge="1" parent="1" target="XefmnypE6_ZuSq_uZl9b-201">
          <mxGeometry width="50" height="50" relative="1" as="geometry">
            <mxPoint x="380" y="4590" as="sourcePoint" />
            <mxPoint x="430" y="4540" as="targetPoint" />
          </mxGeometry>
        </mxCell>
        <mxCell id="XefmnypE6_ZuSq_uZl9b-210" value="" style="endArrow=classic;html=1;rounded=0;entryX=0.5;entryY=0;entryDx=0;entryDy=0;entryPerimeter=0;" edge="1" parent="1" source="XefmnypE6_ZuSq_uZl9b-203" target="XefmnypE6_ZuSq_uZl9b-205">
          <mxGeometry width="50" height="50" relative="1" as="geometry">
            <mxPoint x="310" y="4650" as="sourcePoint" />
            <mxPoint x="360" y="4600" as="targetPoint" />
          </mxGeometry>
        </mxCell>
        <mxCell id="XefmnypE6_ZuSq_uZl9b-211" value="" style="endArrow=classic;html=1;rounded=0;" edge="1" parent="1" target="XefmnypE6_ZuSq_uZl9b-205">
          <mxGeometry width="50" height="50" relative="1" as="geometry">
            <mxPoint x="370" y="4733.5" as="sourcePoint" />
            <mxPoint x="270" y="4846.5" as="targetPoint" />
          </mxGeometry>
        </mxCell>
        <mxCell id="XefmnypE6_ZuSq_uZl9b-212" value="" style="endArrow=classic;html=1;rounded=0;" edge="1" parent="1" target="XefmnypE6_ZuSq_uZl9b-201">
          <mxGeometry width="50" height="50" relative="1" as="geometry">
            <mxPoint x="370" y="4716" as="sourcePoint" />
            <mxPoint x="285" y="4640" as="targetPoint" />
          </mxGeometry>
        </mxCell>
        <mxCell id="XefmnypE6_ZuSq_uZl9b-213" value="Оплата" style="ellipse;whiteSpace=wrap;html=1;" vertex="1" parent="1">
          <mxGeometry x="590.5" y="4580" width="120" height="40" as="geometry" />
        </mxCell>
        <mxCell id="XefmnypE6_ZuSq_uZl9b-214" value="Запит до БД" style="ellipse;whiteSpace=wrap;html=1;" vertex="1" parent="1">
          <mxGeometry x="760" y="4560" width="120" height="40" as="geometry" />
        </mxCell>
        <mxCell id="XefmnypE6_ZuSq_uZl9b-215" value="Перегляд рекомендацій" style="ellipse;whiteSpace=wrap;html=1;" vertex="1" parent="1">
          <mxGeometry x="735.5" y="4460" width="120" height="40" as="geometry" />
        </mxCell>
        <mxCell id="XefmnypE6_ZuSq_uZl9b-216" value="Перегляд товарів" style="ellipse;whiteSpace=wrap;html=1;" vertex="1" parent="1">
          <mxGeometry x="600" y="4440" width="120" height="40" as="geometry" />
        </mxCell>
        <mxCell id="XefmnypE6_ZuSq_uZl9b-217" value="Створити оголошення" style="ellipse;whiteSpace=wrap;html=1;" vertex="1" parent="1">
          <mxGeometry x="460" y="4460" width="120" height="40" as="geometry" />
        </mxCell>
        <mxCell id="XefmnypE6_ZuSq_uZl9b-218" value="Реєстрація" style="ellipse;whiteSpace=wrap;html=1;" vertex="1" parent="1">
          <mxGeometry x="615" y="4680" width="120" height="40" as="geometry" />
        </mxCell>
        <mxCell id="XefmnypE6_ZuSq_uZl9b-219" value="Включає" style="endArrow=open;endSize=12;dashed=1;html=1;rounded=0;exitX=0.5;exitY=1;exitDx=0;exitDy=0;entryX=0.544;entryY=-0.04;entryDx=0;entryDy=0;entryPerimeter=0;" edge="1" parent="1" source="XefmnypE6_ZuSq_uZl9b-200" target="XefmnypE6_ZuSq_uZl9b-213">
          <mxGeometry width="160" relative="1" as="geometry">
            <mxPoint x="660" y="4560" as="sourcePoint" />
            <mxPoint x="820" y="4560" as="targetPoint" />
          </mxGeometry>
        </mxCell>
        <mxCell id="XefmnypE6_ZuSq_uZl9b-220" value="Включає" style="endArrow=open;endSize=12;dashed=1;html=1;rounded=0;exitX=0.5;exitY=0;exitDx=0;exitDy=0;entryX=0.5;entryY=1;entryDx=0;entryDy=0;" edge="1" parent="1" source="XefmnypE6_ZuSq_uZl9b-200" target="XefmnypE6_ZuSq_uZl9b-216">
          <mxGeometry width="160" relative="1" as="geometry">
            <mxPoint x="660" y="4500" as="sourcePoint" />
            <mxPoint x="820" y="4500" as="targetPoint" />
          </mxGeometry>
        </mxCell>
        <mxCell id="XefmnypE6_ZuSq_uZl9b-221" value="Включає" style="endArrow=open;endSize=12;dashed=1;html=1;rounded=0;exitX=1;exitY=0.5;exitDx=0;exitDy=0;entryX=0.352;entryY=1.073;entryDx=0;entryDy=0;entryPerimeter=0;" edge="1" parent="1" source="XefmnypE6_ZuSq_uZl9b-200" target="XefmnypE6_ZuSq_uZl9b-215">
          <mxGeometry width="160" relative="1" as="geometry">
            <mxPoint x="730" y="4530" as="sourcePoint" />
            <mxPoint x="890" y="4530" as="targetPoint" />
          </mxGeometry>
        </mxCell>
        <mxCell id="XefmnypE6_ZuSq_uZl9b-222" value="Включає" style="endArrow=open;endSize=12;dashed=1;html=1;rounded=0;exitX=0.921;exitY=0.888;exitDx=0;exitDy=0;exitPerimeter=0;entryX=-0.019;entryY=0.396;entryDx=0;entryDy=0;entryPerimeter=0;" edge="1" parent="1" source="XefmnypE6_ZuSq_uZl9b-200" target="XefmnypE6_ZuSq_uZl9b-214">
          <mxGeometry width="160" relative="1" as="geometry">
            <mxPoint x="710" y="4560" as="sourcePoint" />
            <mxPoint x="870" y="4560" as="targetPoint" />
          </mxGeometry>
        </mxCell>
        <mxCell id="XefmnypE6_ZuSq_uZl9b-223" value="" style="endArrow=none;html=1;rounded=0;exitX=1;exitY=0.5;exitDx=0;exitDy=0;" edge="1" parent="1" source="XefmnypE6_ZuSq_uZl9b-214" target="XefmnypE6_ZuSq_uZl9b-197">
          <mxGeometry width="50" height="50" relative="1" as="geometry">
            <mxPoint x="880" y="4570" as="sourcePoint" />
            <mxPoint x="930" y="4520" as="targetPoint" />
          </mxGeometry>
        </mxCell>
        <mxCell id="XefmnypE6_ZuSq_uZl9b-224" value="" style="endArrow=none;html=1;rounded=0;exitX=0.947;exitY=0.909;exitDx=0;exitDy=0;exitPerimeter=0;entryX=0.356;entryY=1.057;entryDx=0;entryDy=0;entryPerimeter=0;" edge="1" parent="1" source="XefmnypE6_ZuSq_uZl9b-205" target="XefmnypE6_ZuSq_uZl9b-218">
          <mxGeometry width="50" height="50" relative="1" as="geometry">
            <mxPoint x="520" y="4850" as="sourcePoint" />
            <mxPoint x="570" y="4800" as="targetPoint" />
          </mxGeometry>
        </mxCell>
        <mxCell id="XefmnypE6_ZuSq_uZl9b-225" value="" style="endArrow=none;html=1;rounded=0;entryX=0.5;entryY=1;entryDx=0;entryDy=0;" edge="1" parent="1" source="XefmnypE6_ZuSq_uZl9b-218" target="XefmnypE6_ZuSq_uZl9b-214">
          <mxGeometry width="50" height="50" relative="1" as="geometry">
            <mxPoint x="750" y="4690" as="sourcePoint" />
            <mxPoint x="800" y="4640" as="targetPoint" />
          </mxGeometry>
        </mxCell>
        <mxCell id="XefmnypE6_ZuSq_uZl9b-226" value="" style="endArrow=none;html=1;rounded=0;exitX=1.018;exitY=0.686;exitDx=0;exitDy=0;exitPerimeter=0;" edge="1" parent="1" source="XefmnypE6_ZuSq_uZl9b-213" target="XefmnypE6_ZuSq_uZl9b-198">
          <mxGeometry width="50" height="50" relative="1" as="geometry">
            <mxPoint x="810" y="4730" as="sourcePoint" />
            <mxPoint x="860" y="4680" as="targetPoint" />
          </mxGeometry>
        </mxCell>
        <mxCell id="XefmnypE6_ZuSq_uZl9b-227" value="" style="endArrow=none;html=1;rounded=0;entryX=0.5;entryY=1;entryDx=0;entryDy=0;" edge="1" parent="1" source="XefmnypE6_ZuSq_uZl9b-203" target="XefmnypE6_ZuSq_uZl9b-217">
          <mxGeometry width="50" height="50" relative="1" as="geometry">
            <mxPoint x="480" y="4590" as="sourcePoint" />
            <mxPoint x="530" y="4540" as="targetPoint" />
          </mxGeometry>
        </mxCell>
        <mxCell id="XefmnypE6_ZuSq_uZl9b-228" value="Доступно тільки продавцю" style="shape=note;whiteSpace=wrap;html=1;backgroundOutline=1;darkOpacity=0.05;size=13;" vertex="1" parent="1">
          <mxGeometry x="385.5" y="4490" width="80" height="50" as="geometry" />
        </mxCell>
        <mxCell id="XefmnypE6_ZuSq_uZl9b-232" value="" style="endArrow=none;dashed=1;html=1;rounded=0;exitX=0.5;exitY=1;exitDx=0;exitDy=0;exitPerimeter=0;" edge="1" parent="1" source="XefmnypE6_ZuSq_uZl9b-228">
          <mxGeometry width="50" height="50" relative="1" as="geometry">
            <mxPoint x="440" y="4610" as="sourcePoint" />
            <mxPoint x="450" y="4560" as="targetPoint" />
          </mxGeometry>
        </mxCell>
      </root>
    </mxGraphModel>
  </diagram>
</mxfile>
